<?xml version="1.0" encoding="utf-8"?>
<!-- Generator: Adobe Illustrator 25.2.0, SVG Export Plug-In . SVG Version: 6.00 Build 0)  -->
<svg version="1.1" id="Layer_1" xmlns="http://www.w3.org/2000/svg" xmlns:xlink="http://www.w3.org/1999/xlink" x="0px" y="0px"
	 viewBox="0 0 127 77" width="127" height="77" enable-background="new 0 0 127 77" xml:space="preserve">
<g>
	<g>
		<path stroke="#000000" stroke-width="0.1418" stroke-miterlimit="10" d="M41.856,48.478c0.032,2.218,0.434,3.914,1.205,5.088
			c0.836,1.254,2.017,1.881,3.544,1.881c1.398,0,2.419-0.691,3.062-2.074c0.401-0.9,0.9-1.35,1.495-1.35
			c0.273,0,0.502,0.089,0.687,0.265c0.184,0.177,0.269,0.486,0.253,0.928c-0.016,0.442-0.173,0.92-0.47,1.435
			c-0.298,0.514-0.711,0.973-1.242,1.374c-1.157,0.9-2.548,1.35-4.171,1.35c-1.752,0-3.263-0.748-4.533-2.242
			c-1.334-1.575-2.001-3.448-2.001-5.618c0-2.17,0.189-3.934,0.567-5.292c0.377-1.358,0.88-2.487,1.507-3.388
			c1.221-1.816,2.749-2.725,4.581-2.725c2.347,0,3.994,0.924,4.943,2.773c0.659,1.286,1.013,3.175,1.061,5.666
			c0.016,0.707-0.096,1.182-0.337,1.423c-0.241,0.241-0.732,0.362-1.471,0.362L41.856,48.478z M50.126,46.38
			c0.032-2.797-0.554-4.709-1.76-5.738c-0.482-0.434-1.069-0.651-1.76-0.651c-0.691,0-1.262,0.129-1.712,0.386
			c-0.45,0.257-0.848,0.603-1.193,1.037c-0.346,0.434-0.635,0.928-0.868,1.483c-0.233,0.554-0.422,1.121-0.567,1.7
			c-0.145,0.611-0.249,1.214-0.313,1.809l3.303,0.145C47.41,46.549,49.033,46.493,50.126,46.38z"/>
		<path stroke="#000000" stroke-width="0.1418" stroke-miterlimit="10" d="M61.799,57.327c-0.916,0.016-1.772-0.173-2.568-0.567
			c-0.796-0.394-1.483-1.009-2.062-1.845c-1.27-1.768-1.905-4.284-1.905-7.547c0-2.925,0.683-5.232,2.05-6.92
			c1.286-1.607,2.99-2.411,5.112-2.411c1.784,0,3.263,0.771,4.436,2.315c1.206,1.639,1.809,3.89,1.809,6.751
			c0,3.183-0.7,5.723-2.098,7.619C65.319,56.427,63.728,57.295,61.799,57.327z M64.017,40.57c-0.53-0.386-1.153-0.578-1.869-0.578
			c-0.715,0-1.366,0.197-1.953,0.59c-0.587,0.394-1.081,0.945-1.483,1.652c-0.82,1.415-1.23,3.355-1.23,5.823
			c0,2.468,0.394,4.288,1.182,5.461c0.787,1.173,1.84,1.76,3.158,1.76c1.447,0,2.604-0.828,3.472-2.484
			c0.772-1.479,1.158-3.295,1.158-5.449C66.452,44.034,65.64,41.775,64.017,40.57z"/>
		<path stroke="#000000" stroke-width="0.1418" stroke-miterlimit="10" d="M86.224,53.373c0.112-0.402,0.225-0.82,0.337-1.254
			c0.289-1.093,0.594-2.266,0.916-3.52c0.514-2.106,1.197-5.031,2.049-8.776c0.096-0.482,0.285-0.832,0.567-1.049
			c0.281-0.217,0.558-0.325,0.832-0.325c0.273,0,0.527,0.117,0.76,0.35c0.233,0.233,0.35,0.511,0.35,0.832
			c0,0.322-0.072,0.671-0.217,1.049c-0.145,0.378-0.35,0.977-0.615,1.796c-0.265,0.82-0.547,1.732-0.844,2.737
			c-0.298,1.005-0.603,2.05-0.916,3.135c-0.314,1.085-0.607,2.118-0.88,3.098c-0.45,1.608-0.78,2.821-0.989,3.641
			c-0.209,0.82-0.438,1.31-0.687,1.471c-0.249,0.161-0.502,0.241-0.76,0.241c-0.595,0-0.972-0.281-1.133-0.844
			c-0.354-1.334-0.868-3.44-1.543-6.317c-0.836-3.569-1.487-6.269-1.953-8.102c-0.113,0.45-0.225,0.94-0.338,1.471
			c-0.306,1.254-0.643,2.604-1.013,4.051c-0.933,3.794-1.704,6.703-2.315,8.728c-0.097,0.273-0.274,0.506-0.531,0.699
			c-0.257,0.193-0.514,0.289-0.771,0.289c-0.595,0-0.965-0.273-1.109-0.82c-0.418-1.414-0.804-2.761-1.157-4.038
			c-0.354-1.278-0.707-2.528-1.061-3.749c-0.723-2.475-1.511-4.838-2.363-7.089C70.68,40.61,70.6,40.168,70.6,39.75
			c0-0.418,0.109-0.739,0.326-0.965c0.217-0.225,0.47-0.337,0.76-0.337c0.771,0,1.273,0.43,1.507,1.29
			c0.233,0.86,0.466,1.769,0.699,2.725c0.233,0.956,0.466,1.937,0.699,2.941c0.233,1.005,0.466,2.001,0.699,2.99
			c0.233,0.989,0.47,1.925,0.712,2.809c0.257,0.997,0.498,1.841,0.723,2.532l3.255-13.647c0.289-1.077,0.844-1.615,1.664-1.615
			c0.852,0,1.398,0.571,1.64,1.712C84.488,46.356,85.468,50.753,86.224,53.373z"/>
		<path stroke="#000000" stroke-width="0.1418" stroke-miterlimit="10" d="M96.695,33.939c0-0.563,0.137-0.98,0.41-1.254
			c0.273-0.273,0.57-0.41,0.892-0.41c0.321,0,0.611,0.137,0.868,0.41c0.257,0.274,0.353,0.691,0.289,1.254
			c-0.145,1.495-0.233,3.231-0.265,5.208c1.318,0,2.315-0.04,2.99-0.12c0.675-0.08,1.157-0.121,1.447-0.121
			c1.093-0.032,1.639,0.37,1.639,1.205c0,0.482-0.281,0.82-0.844,1.013c-0.193,0.064-0.418,0.088-0.675,0.072
			c-0.257-0.016-0.535-0.028-0.832-0.036c-0.298-0.008-0.591-0.012-0.88-0.012c-0.498,0-0.976,0-1.435,0
			c-0.458,0-0.864,0.008-1.218,0.024c-0.065,0-0.137,0-0.217,0c0,0.032,0,0.056,0,0.072c0,6.655,0.097,10.408,0.289,11.26
			c0.193,0.852,0.402,1.463,0.627,1.833c0.402,0.643,0.916,0.964,1.543,0.964c1.013,0,1.696-0.498,2.05-1.495
			c0.145-0.803,0.555-1.205,1.23-1.205c0.241,0,0.454,0.101,0.639,0.301c0.184,0.201,0.277,0.494,0.277,0.88
			c0,0.386-0.12,0.804-0.362,1.254c-0.241,0.45-0.563,0.844-0.965,1.181c-0.884,0.739-1.873,1.109-2.966,1.109
			c-1.993,0-3.368-1.101-4.123-3.303c-0.274-0.803-0.41-1.792-0.41-2.966v-9.717c-0.338,0.016-0.707,0.04-1.109,0.073
			c-0.498,0.016-0.872-0.109-1.121-0.374c-0.25-0.265-0.374-0.546-0.374-0.844c0-0.297,0.129-0.563,0.386-0.796
			c0.257-0.233,0.643-0.35,1.157-0.35l1.061,0.024L96.695,33.939L96.695,33.939z"/>
		<path stroke="#000000" stroke-width="0.1418" stroke-miterlimit="10" d="M109.851,48.478c0.032,2.218,0.434,3.914,1.206,5.088
			c0.836,1.254,2.017,1.881,3.544,1.881c1.398,0,2.419-0.691,3.062-2.074c0.402-0.9,0.9-1.35,1.495-1.35
			c0.273,0,0.502,0.089,0.687,0.265c0.185,0.177,0.269,0.486,0.253,0.928c-0.016,0.442-0.173,0.92-0.47,1.435
			c-0.298,0.514-0.711,0.973-1.242,1.374c-1.157,0.9-2.548,1.35-4.171,1.35c-1.752,0-3.263-0.748-4.533-2.242
			c-1.335-1.575-2.001-3.448-2.001-5.618c0-2.17,0.189-3.934,0.567-5.292c0.377-1.358,0.88-2.487,1.507-3.388
			c1.221-1.816,2.749-2.725,4.581-2.725c2.347,0,3.994,0.924,4.943,2.773c0.659,1.286,1.013,3.175,1.061,5.666
			c0.016,0.707-0.096,1.182-0.337,1.423c-0.241,0.241-0.732,0.362-1.471,0.362L109.851,48.478z M118.122,46.38
			c0.032-2.797-0.555-4.709-1.76-5.738c-0.482-0.434-1.069-0.651-1.76-0.651c-0.691,0-1.262,0.129-1.712,0.386
			c-0.45,0.257-0.848,0.603-1.193,1.037c-0.346,0.434-0.635,0.928-0.868,1.483c-0.233,0.554-0.422,1.121-0.567,1.7
			c-0.145,0.611-0.249,1.214-0.314,1.809l3.303,0.145C115.405,46.549,117.028,46.493,118.122,46.38z"/>
		<path stroke="#000000" stroke-width="0.1418" stroke-miterlimit="10" d="M126.779,25.259c-0.032,1.961-0.06,4.083-0.085,6.365
			c-0.024,2.283-0.036,5.803-0.036,10.561c0,4.758,0.064,9.162,0.193,13.213c0.016,0.53-0.108,0.933-0.374,1.206
			c-0.265,0.273-0.583,0.41-0.952,0.41c-0.37,0-0.699-0.125-0.989-0.374c-0.289-0.249-0.41-0.816-0.362-1.7
			c0.048-0.883,0.1-2.214,0.157-3.99c0.056-1.776,0.108-3.701,0.157-5.775c0.08-4.565,0.12-8.386,0.12-11.465
			c0-3.078-0.004-5.389-0.012-6.932c-0.008-1.543-0.02-2.966-0.036-4.268c-0.032-2.443-0.112-4.677-0.241-6.703
			c-0.032-0.514,0.072-0.912,0.314-1.194c0.241-0.281,0.546-0.422,0.916-0.422c0.37,0,0.711,0.141,1.025,0.422
			c0.313,0.281,0.454,0.84,0.422,1.676c-0.033,0.836-0.069,2.05-0.108,3.641C126.847,21.522,126.811,23.298,126.779,25.259z"/>
	</g>
	<path fill="#FFFFFF" d="M6.955,1.918L0.893,52.759c0,0-0.849,5.814,2.483,9.785s12.474,3.971,12.901,3.971
		c0.427,0,8.677-0.355,12.103-1.56c3.426-1.205,7.824-5.203,7.54-9.195C35.636,51.766,30.013,1,30.013,1L18.365,13.266L6.955,1.918z
		"/>
	<path fill="none" d="M31.871,42.305c-0.357-0.264-0.623-0.606-0.831-0.996c-0.24-0.449-0.386-0.932-0.537-1.415
		c-0.315-1.006-0.476-2.043-0.654-3.078c-0.136-0.793-0.326-1.57-0.647-2.312c-0.254-0.587-0.565-1.135-0.996-1.609
		C28,32.668,27.8,32.434,27.581,32.219c-0.514-0.504-0.994-1.039-1.47-1.578c-0.183,0.109-0.37,0.213-0.562,0.31
		c-0.868,0.437-1.78,0.748-2.743,0.888c-0.792,0.115-1.582,0.093-2.363-0.097c-0.765-0.186-1.428-0.547-1.943-1.155
		c-0.049-0.058-0.113-0.103-0.194-0.175c-0.073,0.068-0.116,0.1-0.149,0.14c-0.604,0.73-1.402,1.107-2.316,1.263
		c-0.749,0.129-1.502,0.136-2.249-0.011c-1.935-0.38-3.613-1.245-4.974-2.69c-0.099-0.106-0.2-0.214-0.279-0.335
		c-0.168-0.259-0.115-0.569,0.111-0.748c0.212-0.167,0.515-0.157,0.728,0.031c0.079,0.07,0.146,0.153,0.218,0.23
		c1.277,1.367,2.86,2.151,4.692,2.447c0.633,0.102,1.266,0.056,1.888-0.107c0.389-0.102,0.749-0.267,1.049-0.537
		c0.452-0.407,0.72-0.905,0.719-1.529c-0.002-1.018-0.005-2.036,0.004-3.054c0.002-0.205-0.062-0.348-0.222-0.475
		c-0.592-0.468-1.14-0.985-1.673-1.518c-0.092-0.092-0.186-0.193-0.242-0.308c-0.107-0.22-0.005-0.429,0.226-0.501
		c0.088-0.027,0.18-0.045,0.272-0.053c0.342-0.033,0.684-0.08,1.027-0.087c0.793-0.014,1.586-0.017,2.379-0.006
		c0.369,0.005,0.739,0.044,1.106,0.087c0.126,0.015,0.256,0.072,0.364,0.141c0.203,0.129,0.249,0.365,0.094,0.548
		c-0.213,0.251-0.44,0.494-0.684,0.715c-0.264,0.239-0.554,0.449-0.832,0.673c-0.154,0.124-0.303,0.255-0.46,0.376
		c-0.171,0.132-0.238,0.298-0.233,0.516c0.011,0.502,0.003,1.005,0.003,1.507c0,0.45,0.002,0.899,0,1.348
		c-0.005,0.866,0.41,1.481,1.141,1.904c0.301,0.174,0.631,0.27,0.972,0.327c0.672,0.113,1.341,0.104,2.009-0.047
		c0.848-0.192,1.646-0.486,2.383-0.904c-0.436-0.574-0.824-1.181-1.172-1.816c-0.238-0.435-0.473-0.87-0.664-1.328
		c-0.411-0.99-0.742-2.007-0.995-3.048c-0.16-0.654-0.302-1.313-0.397-1.98c-0.053-0.372-0.103-0.745-0.148-1.118
		c-0.028-0.23-0.055-0.461-0.081-0.691c-0.049,0.266-0.282,0.468-0.563,0.468c-0.317,0-0.573-0.257-0.573-0.573
		c0-0.913,0.375-1.741,0.978-2.337c0.001-0.101,0.004-0.201,0.01-0.302c0.041-0.711,0.094-1.421,0.198-2.128
		c0.214-1.456,0.602-2.866,1.067-4.259c0.067-0.201,0.137-0.401,0.208-0.6l-3.991,4.35c-0.226,0.246-0.534,0.37-0.843,0.37
		c-0.316,0.005-0.633-0.119-0.863-0.37l-5.093-5.551c-0.026,0.111-0.058,0.22-0.101,0.326c-0.321,0.809-0.808,1.498-1.516,2.012
		c-0.534,0.388-1.13,0.669-1.774,0.805c-0.526,0.111-1.064,0.087-1.58-0.111c-0.183-0.07-0.359-0.152-0.532-0.241l-0.737,6.686
		c0.327-0.723,0.756-1.383,1.352-1.933c0.706-0.651,1.524-1.07,2.484-1.166c0.492-0.049,0.99-0.05,1.482,0.021
		c0.274,0.04,0.55,0.075,0.82,0.133c0.704,0.15,1.315,0.481,1.839,0.977c0.394,0.372,0.718,0.791,0.945,1.284
		c0.2,0.432,0.439,0.843,0.694,1.244c0.431,0.68,0.512,1.424,0.392,2.202c-0.14,0.905-0.548,1.689-1.103,2.404
		c-0.385,0.496-0.833,0.929-1.345,1.293c-0.326,0.232-0.669,0.426-1.031,0.573c0.086,0.112,0.133,0.256,0.117,0.407
		c-0.03,0.295-0.279,0.515-0.57,0.515c-0.02,0-0.039-0.001-0.059-0.003l-2.765-0.282c-0.196,0.036-0.402,0.022-0.612-0.014
		c-0.099-0.017-0.198-0.045-0.294-0.078l-2.103-0.215c-0.315-0.032-0.544-0.314-0.512-0.628c0.032-0.315,0.311-0.549,0.628-0.512
		l0.056,0.006c-0.027-0.034-0.056-0.067-0.082-0.102c-0.065-0.087-0.123-0.18-0.175-0.276c-0.282-0.518-0.504-1.051-0.628-1.613
		l-1.048,9.509c0.26,0.58,0.489,1.174,0.7,1.775c0.257,0.732,0.412,1.491,0.509,2.258c0.209,1.654,0.535,3.284,0.984,4.889
		c0.152,0.544,0.301,1.089,0.437,1.637c0.073,0.297,0.115,0.603,0.17,0.905c0.152,0.838,0.293,1.678,0.459,2.513
		c0.264,1.331,0.538,2.66,0.822,3.987c0.234,1.095,0.493,2.184,0.735,3.277c0.21,0.949,0.478,1.882,0.796,2.8
		c0.429,1.238,0.948,2.438,1.573,3.59c0.325,0.6,0.682,1.183,1.069,1.745c0.296-0.308,0.67-0.588,1.139-0.823
		c0.566-0.283,1.255-0.053,1.538,0.513c0.283,0.566,0.054,1.255-0.512,1.538c-0.949,0.474-0.908,1.187-0.757,1.637
		c0.752,0.87,2.288,1.003,2.833,0.974c0.021-0.001,0.048-0.002,0.07-0.001c1.469,0.017,2.958-0.08,4.425-0.28
		c0.937-0.128,1.876-0.29,2.811-0.482c-0.335-0.351-0.584-0.762-0.764-1.218c-0.19-0.481-0.312-0.979-0.384-1.492
		c-0.074-0.524-0.071-1.048-0.043-1.572c0.026-0.497,0.153-0.977,0.34-1.44c0.279-0.692,0.634-1.343,1.034-1.971
		c0.48-0.752,0.996-1.48,1.584-2.152c0.312-0.357,0.613-0.727,0.987-1.027c0.085-0.068,0.16-0.148,0.236-0.226
		c0.434-0.451,0.924-0.837,1.398-1.243c0.451-0.386,0.89-0.786,1.329-1.186c0.331-0.302,0.602-0.657,0.857-1.023
		c0.563-0.804,1.159-1.583,1.803-2.322c0.148-0.17,0.323-0.323,0.505-0.457c0.113-0.083,0.234-0.147,0.36-0.196
		c-0.14-1.267-0.296-2.688-0.465-4.222C32.773,42.768,32.299,42.622,31.871,42.305z"/>
	<path fill="#F3AA49" d="M2.333,30.677c-0.044,0.087-0.067,0.186-0.086,0.283c-0.141,0.71-0.218,1.429-0.289,2.148
		c-0.033,0.335-0.051,0.671-0.073,1.007c-0.036,0.573-0.076,1.146-0.102,1.719c-0.027,0.603,0.013,1.209-0.057,1.811
		c0.001,0.161,0.002,0.323,0.001,0.484l0.88-7.987C2.516,30.32,2.424,30.499,2.333,30.677z"/>
	<path fill="#F3AA49" d="M17.106,67.579c-0.755,0-3.29-0.145-4.67-2.012c-0.049-0.066-0.091-0.138-0.124-0.213
		c-0.452-1.008-0.535-2.681,0.645-3.909c-0.388-0.562-0.744-1.145-1.069-1.745c-0.624-1.152-1.144-2.352-1.573-3.59
		c-0.318-0.918-0.586-1.851-0.796-2.8c-0.242-1.093-0.501-2.182-0.735-3.277c-0.284-1.327-0.557-2.656-0.822-3.987
		c-0.166-0.835-0.306-1.675-0.459-2.513c-0.055-0.302-0.097-0.607-0.17-0.905c-0.135-0.548-0.285-1.093-0.437-1.637
		c-0.449-1.606-0.775-3.235-0.984-4.889c-0.097-0.767-0.252-1.526-0.509-2.258c-0.211-0.602-0.439-1.195-0.7-1.775L2.371,53.241
		c-0.003,0.027-0.007,0.054-0.012,0.081C2.316,53.573,1.352,59.697,8.04,66.25c0.03,0.03,0.059,0.061,0.086,0.094
		c0.062,0.076,6.218,7.544,11.461,8.35c0.169-0.022,0.656-0.113,0.956-0.476c0.271-0.327,0.368-0.844,0.291-1.539
		c-0.308-0.657-0.954-1.674-1.587-1.977c-0.571-0.273-0.812-0.958-0.539-1.529c0.217-0.454,0.695-0.699,1.168-0.643
		c-0.27-0.328-0.539-0.657-0.805-0.988c-0.601,0.028-1.201,0.04-1.797,0.034C17.237,67.577,17.18,67.579,17.106,67.579z"/>
	<path fill="#F3AA49" d="M32.434,14.156c0.007-0.685,0.006-1.369,0.045-2.054c0.044-0.761,0.076-1.523,0.123-2.284
		c0.047-0.751,0.068-1.504,0.103-2.297c-0.024-0.494-0.053-1.028-0.075-1.562c-0.024-0.585-0.098-1.164-0.198-1.74
		c-0.172-0.981-0.456-1.926-0.911-2.817c-0.132-0.259-0.299-0.487-0.504-0.694c-0.071-0.072-0.145-0.135-0.22-0.192
		c0.101,0.151,0.169,0.324,0.19,0.512C30.988,1.028,31.605,6.631,32.434,14.156z"/>
	<path fill="#F3AA49" d="M21.971,14.905c-0.104,0.706-0.157,1.417-0.198,2.128c-0.006,0.101-0.008,0.201-0.01,0.302
		c0.594-0.587,1.41-0.95,2.308-0.95c1.812,0,3.287,1.474,3.287,3.286c0,0.317-0.257,0.573-0.573,0.573
		c-0.317,0-0.573-0.257-0.573-0.573c0-1.18-0.96-2.14-2.14-2.14c-1.18,0-2.14,0.96-2.14,2.14c0,0.036-0.004,0.071-0.011,0.105
		c0.026,0.23,0.053,0.461,0.081,0.691c0.045,0.373,0.096,0.746,0.148,1.118c0.094,0.668,0.237,1.326,0.397,1.98
		c0.253,1.041,0.584,2.058,0.995,3.048c0.191,0.458,0.426,0.894,0.664,1.328c0.347,0.636,0.736,1.243,1.172,1.816
		c0.437-0.248,0.853-0.539,1.245-0.879c0.229-0.199,0.436-0.423,0.652-0.637c0.056-0.056,0.104-0.121,0.163-0.173
		c0.229-0.201,0.545-0.206,0.76-0.018c0.211,0.185,0.243,0.502,0.071,0.756c-0.059,0.087-0.132,0.165-0.203,0.243
		c-0.574,0.633-1.23,1.159-1.956,1.59c0.476,0.539,0.956,1.074,1.47,1.578c0.219,0.215,0.419,0.449,0.625,0.676
		c0.432,0.475,0.742,1.023,0.996,1.609c0.321,0.742,0.511,1.519,0.647,2.312c0.178,1.034,0.339,2.072,0.654,3.078
		c0.151,0.482,0.297,0.966,0.537,1.415c0.209,0.39,0.475,0.731,0.831,0.996c0.428,0.317,0.902,0.464,1.409,0.47
		c-1.36-12.341-3.532-32.051-4.295-38.985l-5.738,6.255c-0.071,0.199-0.141,0.399-0.208,0.6
		C22.574,12.039,22.186,13.449,21.971,14.905z M30.744,25.056c0.032,0.315-0.197,0.597-0.512,0.628l-5.774,0.589
		c-0.02,0.002-0.039,0.003-0.059,0.003c-0.29,0-0.539-0.22-0.569-0.515c-0.032-0.315,0.197-0.597,0.512-0.628l5.774-0.589
		C30.43,24.508,30.712,24.741,30.744,25.056z M29.514,23.116c0.047,0.313-0.168,0.605-0.481,0.653l-4.855,0.736
		c-0.029,0.004-0.058,0.006-0.087,0.006c-0.279,0-0.523-0.204-0.566-0.487c-0.047-0.313,0.168-0.605,0.481-0.653l4.855-0.736
		C29.174,22.587,29.467,22.804,29.514,23.116z"/>
	<path fill="#F3AA49" d="M29.228,0.192c-0.006,0.001-0.012,0.002-0.018,0.003c-0.451,0.086-0.867,0.294-1.217,0.596
		c-0.383,0.33-0.739,0.69-1.02,1.115c-0.361,0.546-0.687,1.113-0.953,1.712c-0.004,0.009-0.008,0.018-0.012,0.027l2.995-3.265
		C29.071,0.305,29.147,0.244,29.228,0.192z"/>
	<path fill="#F3AA49" d="M32.88,47.649c-0.644,0.74-1.24,1.518-1.803,2.322c-0.256,0.366-0.527,0.721-0.857,1.023
		c-0.439,0.4-0.878,0.801-1.329,1.186c-0.474,0.405-0.964,0.792-1.398,1.243c-0.076,0.078-0.151,0.159-0.236,0.226
		c-0.374,0.3-0.675,0.67-0.987,1.027c-0.587,0.672-1.104,1.399-1.584,2.152c-0.4,0.627-0.755,1.279-1.034,1.971
		c-0.187,0.463-0.314,0.942-0.34,1.44c-0.028,0.523-0.031,1.048,0.043,1.572c0.073,0.513,0.194,1.011,0.384,1.492
		c0.18,0.456,0.43,0.866,0.764,1.218c1.237-0.253,2.468-0.559,3.68-0.918c0.443-0.131,0.9-0.267,1.329-0.422
		c1.682-0.607,2.775-1.371,3.544-2.477c0.752-1.083,1.226-2.648,1.447-4.785c0.096-0.932,0.019-1.877-0.069-2.679
		c-0.001-0.005-0.268-2.436-0.688-6.244c-0.127,0.049-0.247,0.113-0.36,0.196C33.203,47.327,33.029,47.479,32.88,47.649z"/>
	<path fill="#F3AA49" d="M37.395,53.632c-0.03-0.722-0.038-1.446-0.096-2.166c-0.064-0.801-0.233-1.587-0.455-2.359
		c-0.143-0.497-0.379-0.94-0.706-1.333c0.353,3.205,0.573,5.203,0.575,5.215c0.096,0.868,0.19,2.012,0.071,3.165
		c-0.159,1.539-0.445,2.849-0.864,3.957c0.151-0.27,0.288-0.548,0.407-0.837c0.124-0.302,0.247-0.605,0.359-0.912
		c0.227-0.624,0.418-1.259,0.535-1.914c0.106-0.597,0.109-1.202,0.144-1.805c0.02-0.336,0.004-0.673,0.004-1.01
		C37.377,53.632,37.386,53.632,37.395,53.632z"/>
	<path fill="#F3AA49" d="M8.859,25.977c0.21,0.036,0.416,0.051,0.612,0.014l-0.906-0.092C8.662,25.932,8.76,25.96,8.859,25.977z"/>
	<path fill="#F3AA49" d="M6.554,24.448c0.026,0.035,0.055,0.068,0.082,0.102l5.717,0.583c0.163,0.016,0.302,0.101,0.395,0.221
		c0.362-0.147,0.705-0.342,1.031-0.573c0.512-0.364,0.96-0.797,1.345-1.293c0.555-0.715,0.963-1.5,1.103-2.404
		c0.121-0.777,0.039-1.522-0.392-2.202c-0.255-0.402-0.494-0.812-0.694-1.244c-0.228-0.493-0.551-0.912-0.945-1.284
		c-0.524-0.495-1.135-0.826-1.839-0.977c-0.271-0.058-0.546-0.093-0.82-0.133c-0.493-0.071-0.991-0.07-1.482-0.021
		c-0.959,0.096-1.778,0.514-2.484,1.166c-0.596,0.55-1.025,1.21-1.352,1.933L5.751,22.56c0.124,0.562,0.346,1.095,0.628,1.613
		C6.431,24.268,6.489,24.361,6.554,24.448z M12.486,16.384c1.812,0,3.287,1.474,3.287,3.286c0,0.317-0.257,0.573-0.573,0.573
		c-0.317,0-0.573-0.257-0.573-0.573c0-1.18-0.96-2.14-2.14-2.14c-1.18,0-2.14,0.96-2.14,2.14c0,0.317-0.257,0.573-0.573,0.573
		c-0.316,0-0.573-0.257-0.573-0.573C9.2,17.859,10.674,16.384,12.486,16.384z M7.18,23.116c0.047-0.313,0.339-0.529,0.653-0.481
		l4.854,0.736c0.313,0.048,0.529,0.34,0.481,0.653c-0.043,0.284-0.287,0.487-0.566,0.487c-0.029,0-0.057-0.002-0.087-0.006
		l-4.855-0.736C7.348,23.721,7.133,23.429,7.18,23.116z"/>
	<path fill="#F3AA49" d="M5.822,1C5.618,1.024,5.42,1.075,5.229,1.169C4.971,1.297,4.731,1.453,4.522,1.654
		c-0.539,0.519-0.85,1.162-1.008,1.882C3.397,4.07,3.378,4.615,3.382,5.261C3.341,6.044,3.505,6.894,3.816,7.719
		c0.2,0.529,0.432,1.045,0.715,1.532c0.102,0.175,0.21,0.346,0.324,0.513l0.962-8.736C5.818,1.019,5.821,1.01,5.822,1z"/>
	<path fill="#F3AA49" d="M9.066,11.989c0.644-0.136,1.239-0.417,1.774-0.805c0.708-0.514,1.196-1.203,1.516-2.012
		c0.042-0.106,0.075-0.216,0.101-0.326L7.819,3.79l-0.864,7.846c0.173,0.089,0.349,0.171,0.532,0.241
		C8.002,12.076,8.54,12.1,9.066,11.989z"/>
	<path d="M30.798,0.516c-0.14-0.208-0.345-0.371-0.593-0.452c-0.333-0.109-0.69-0.057-0.976,0.127
		C29.804,0.086,30.339,0.169,30.798,0.516z"/>
	<path d="M36.713,52.989c-0.001-0.013-0.222-2.01-0.575-5.215c-0.858-7.792-2.503-22.721-3.704-33.618
		c-0.829-7.526-1.447-13.128-1.447-13.128c-0.021-0.188-0.089-0.361-0.19-0.512c-0.459-0.347-0.994-0.43-1.569-0.324
		c-0.081,0.052-0.158,0.114-0.225,0.187l-2.996,3.265l-7.605,8.29L7.801,0.379C7.497,0.048,7.027-0.076,6.6,0.064
		C6.181,0.201,5.881,0.566,5.822,1C5.821,1.01,5.818,1.019,5.817,1.028L4.854,9.765L2.609,30.143l-0.88,7.987L0.096,52.957
		c-0.114,0.702-1.026,7.682,6.296,14.887c0.63,0.762,7.021,8.328,13.001,9.138c0.051,0.007,0.103,0.01,0.154,0.01
		c0.007,0,0.013,0,0.02,0c0.169-0.003,1.678-0.063,2.712-1.275c0.744-0.872,1.015-2.054,0.806-3.515
		c-0.014-0.098-0.041-0.195-0.08-0.286c-0.107-0.252-1.093-2.481-2.767-3.283c-0.117-0.056-0.239-0.09-0.36-0.104
		c-0.474-0.056-0.951,0.189-1.168,0.643c-0.274,0.571-0.032,1.256,0.539,1.529c0.633,0.303,1.279,1.32,1.587,1.977
		c0.078,0.695-0.02,1.212-0.291,1.539c-0.301,0.363-0.788,0.454-0.956,0.476c-5.243-0.806-11.399-8.274-11.461-8.35
		C8.099,66.311,8.07,66.279,8.04,66.25c-6.688-6.553-5.724-12.677-5.681-12.929c0.005-0.027,0.009-0.054,0.012-0.081l2.333-21.172
		l1.048-9.509l0.467-4.237l0.737-6.686L7.819,3.79l4.637,5.055l5.093,5.551c0.23,0.251,0.547,0.375,0.863,0.37
		c0.309-0.001,0.617-0.124,0.843-0.37l3.991-4.351l5.738-6.255c0.764,6.934,2.936,26.644,4.295,38.985
		c0.169,1.534,0.325,2.954,0.465,4.222c0.42,3.808,0.687,6.239,0.688,6.244c0.088,0.802,0.165,1.746,0.069,2.679
		c-0.221,2.137-0.694,3.703-1.447,4.785c-0.769,1.106-1.862,1.87-3.544,2.477c-0.428,0.155-0.886,0.291-1.329,0.422
		c-1.213,0.359-2.444,0.665-3.68,0.918c-0.935,0.191-1.873,0.354-2.811,0.482c-1.467,0.2-2.957,0.298-4.425,0.28
		c-0.022,0-0.049,0-0.07,0.001c-0.545,0.028-2.081-0.105-2.833-0.974c-0.151-0.45-0.192-1.163,0.757-1.637
		c0.566-0.283,0.796-0.972,0.512-1.538c-0.283-0.566-0.972-0.796-1.538-0.513c-0.469,0.235-0.843,0.515-1.139,0.823
		c-1.181,1.228-1.097,2.901-0.645,3.909c0.034,0.075,0.075,0.147,0.124,0.213c1.38,1.867,3.915,2.012,4.67,2.012
		c0.074,0,0.131-0.002,0.168-0.003c0.597,0.005,1.197-0.007,1.797-0.034c0.979-0.045,1.96-0.134,2.932-0.267
		c2.292-0.313,4.591-0.809,6.833-1.473c0.474-0.141,0.964-0.286,1.455-0.463c2.128-0.768,3.606-1.825,4.649-3.325
		c0.384-0.553,0.71-1.186,0.981-1.902c0.419-1.108,0.705-2.418,0.864-3.957C36.903,55.001,36.808,53.857,36.713,52.989z"/>
	<path d="M24.072,16.384c-0.899,0-1.714,0.363-2.308,0.95c-0.604,0.596-0.978,1.423-0.978,2.337c0,0.317,0.257,0.573,0.573,0.573
		c0.281,0,0.513-0.202,0.563-0.468c0.006-0.034,0.011-0.069,0.011-0.105c0-1.18,0.96-2.14,2.14-2.14c1.18,0,2.14,0.96,2.14,2.14
		c0,0.317,0.257,0.573,0.573,0.573s0.573-0.257,0.573-0.573C27.359,17.859,25.885,16.384,24.072,16.384z"/>
	<path d="M9.773,20.244c0.317,0,0.573-0.257,0.573-0.573c0-1.18,0.96-2.14,2.14-2.14c1.18,0,2.14,0.96,2.14,2.14
		c0,0.317,0.257,0.573,0.573,0.573c0.316,0,0.573-0.257,0.573-0.573c0-1.812-1.474-3.286-3.287-3.286
		c-1.812,0-3.286,1.474-3.286,3.286C9.2,19.987,9.456,20.244,9.773,20.244z"/>
	<path d="M23.526,24.024c0.043,0.284,0.287,0.487,0.566,0.487c0.029,0,0.057-0.002,0.087-0.006l4.855-0.736
		c0.313-0.048,0.528-0.34,0.481-0.653c-0.048-0.313-0.34-0.529-0.653-0.481l-4.855,0.736C23.694,23.419,23.479,23.711,23.526,24.024
		z"/>
	<path d="M23.83,25.762c0.03,0.295,0.279,0.515,0.569,0.515c0.02,0,0.039-0.001,0.059-0.003l5.774-0.589
		c0.315-0.032,0.544-0.314,0.512-0.628c-0.032-0.315-0.314-0.549-0.628-0.512l-5.774,0.589
		C24.027,25.166,23.798,25.447,23.83,25.762z"/>
	<path d="M7.661,23.769l4.855,0.736c0.029,0.004,0.058,0.006,0.087,0.006c0.279,0,0.523-0.204,0.566-0.487
		c0.048-0.313-0.168-0.605-0.481-0.653l-4.854-0.736c-0.314-0.048-0.605,0.168-0.653,0.481C7.133,23.429,7.348,23.721,7.661,23.769z
		"/>
	<path d="M12.747,25.355c-0.093-0.12-0.232-0.205-0.395-0.221L6.636,24.55l-0.056-0.006c-0.318-0.037-0.596,0.197-0.628,0.512
		c-0.032,0.315,0.197,0.597,0.512,0.628l2.103,0.215l0.906,0.092l2.765,0.282c0.02,0.002,0.039,0.003,0.059,0.003
		c0.29,0,0.539-0.22,0.57-0.515C12.88,25.61,12.834,25.467,12.747,25.355z"/>
	<path d="M25.378,29.758c-0.737,0.418-1.535,0.712-2.383,0.904c-0.667,0.151-1.336,0.16-2.009,0.047
		c-0.341-0.057-0.672-0.153-0.972-0.327c-0.73-0.423-1.145-1.038-1.141-1.904c0.002-0.45,0-0.899,0-1.348
		c0-0.502,0.008-1.005-0.003-1.507c-0.005-0.218,0.062-0.384,0.233-0.516c0.157-0.121,0.306-0.252,0.46-0.376
		c0.278-0.224,0.568-0.434,0.832-0.673c0.244-0.221,0.471-0.464,0.684-0.715c0.155-0.183,0.109-0.419-0.094-0.548
		c-0.108-0.069-0.238-0.126-0.364-0.141c-0.367-0.043-0.737-0.082-1.106-0.087c-0.793-0.011-1.586-0.008-2.379,0.006
		c-0.343,0.006-0.685,0.053-1.027,0.087c-0.092,0.009-0.184,0.026-0.272,0.053c-0.231,0.072-0.332,0.281-0.226,0.501
		c0.056,0.115,0.15,0.216,0.242,0.308c0.533,0.533,1.081,1.05,1.673,1.518c0.161,0.127,0.224,0.269,0.222,0.475
		c-0.009,1.018-0.006,2.036-0.004,3.054c0.001,0.624-0.267,1.122-0.719,1.529c-0.3,0.271-0.661,0.436-1.049,0.537
		c-0.622,0.163-1.255,0.209-1.888,0.107c-1.832-0.296-3.415-1.08-4.692-2.447c-0.072-0.077-0.139-0.161-0.218-0.23
		c-0.214-0.188-0.516-0.198-0.728-0.031c-0.227,0.178-0.279,0.489-0.111,0.748c0.078,0.121,0.179,0.229,0.279,0.335
		c1.361,1.445,3.039,2.309,4.974,2.69c0.746,0.147,1.5,0.14,2.249,0.011c0.913-0.157,1.712-0.533,2.316-1.263
		c0.033-0.04,0.076-0.072,0.149-0.14c0.081,0.072,0.145,0.118,0.194,0.175c0.515,0.609,1.178,0.969,1.943,1.155
		c0.78,0.19,1.571,0.212,2.363,0.097c0.963-0.14,1.875-0.451,2.743-0.888c0.192-0.097,0.379-0.201,0.562-0.31
		c-0.049-0.055-0.097-0.11-0.146-0.165C25.759,30.244,25.565,30.004,25.378,29.758z"/>
	<path d="M28.066,29.051c0.071-0.078,0.144-0.156,0.203-0.243c0.173-0.255,0.14-0.571-0.071-0.756
		c-0.214-0.188-0.531-0.182-0.76,0.018c-0.059,0.052-0.107,0.117-0.163,0.173c-0.216,0.214-0.423,0.438-0.652,0.637
		c-0.392,0.34-0.808,0.631-1.245,0.879c0.187,0.246,0.381,0.486,0.587,0.719c0.048,0.055,0.097,0.11,0.146,0.165
		C26.836,30.21,27.492,29.684,28.066,29.051z"/>
</g>
</svg>
